# xmcd
#
# Track frame offsets:
#	150
#	12047
#	26397
#	38490
#	52757
#	65797
#	79729
#	93549
#	106144
#	118683
#	132420
#	147020
#	160005
#	173881
#	187395
#	200296
#	214117
#	226405
#	239027
#	252123
#	267309
#	280489
#	295034
#	304675
#	317631
#
# Disc length: 4393 seconds
#
# Revision: 4
# Processed by: cddbd v1.5.2PL0 Copyright (c) Steve Scherf et al.
# Submitted via: audiograbber 1.83.01
#
DISCID=62112719
DTITLE=Various. - Triomphes du Blues 17, Jug Bands, Washboards...
DYEAR=2001
DGENRE=Blues
TTITLE0=Mississippi Jook Band - Barbecue bust - 1936
TTITLE1=Memphis Jug Band - Peaches in the springtime - 1928
TTITLE2=Gus Cannon - Bring it with you when you come - 1930
TTITLE3=Mississippi Sheiks - Bed string poker - 1931
TTITLE4=Cincinnati Jug Band - Newport blues - 1929
TTITLE5=Mississippi Mud Steppers - Jackson Stomp - 1930
TTITLE6=The Tennessee Chocolate Drops - Vine street drag - 1930
TTITLE7=Howard Armstrong and Ted Logan - Ted's stomp - 1934
TTITLE8=Howard Armstrong and Ted Logan - State street rag - 1930
TTITLE9=Yank Rachell - My mind got bad - 1938
TTITLE10=Yank Rachell - When you feel down - 1938
TTITLE11=Johnny Young - My babe walked out on me in 44 - 1938
TTITLE12=Harlem Hamfats - Hamfats swing - 1936
TTITLE13=Washboard Sam - The big boat - 1937
TTITLE14=Washboard Sam - She fooled me - 1940
TTITLE15=Georgia Cotton Pickers - She's coming back home some cold rainy day - 
TTITLE15=1930
TTITLE16=Big Joe and His Washboard Band - If you take me back - 1940
TTITLE17=Buddy Woods - Muscat hill blues - 1937
TTITLE18=Tampa Red - Hard road red - 1940
TTITLE19=Big Joe Williams - Baby, please don't go - 1935
TTITLE20=Charley Patton - Elder green blues - 1929
TTITLE21=Blind Blake - Doggin' me mama blues - 1928
TTITLE22=Leadbelly - Cornbread rough - 1944
TTITLE23=Leadbelly - Rock Island line - 1944
TTITLE24=Washington Philips - Paul and Silas in jail - 1927
EXTD=YEAR: 2001
EXTT0=
EXTT1=
EXTT2=
EXTT3=
EXTT4=
EXTT5=
EXTT6=
EXTT7=
EXTT8=
EXTT9=
EXTT10=
EXTT11=
EXTT12=
EXTT13=
EXTT14=
EXTT15=
EXTT16=
EXTT17=
EXTT18=
EXTT19=
EXTT20=
EXTT21=
EXTT22=
EXTT23=
EXTT24=
PLAYORDER=
